<?xml version="1.0" encoding="utf-8"?>
<!-- Generator: Adobe Illustrator 27.5.0, SVG Export Plug-In . SVG Version: 6.00 Build 0)  -->
<svg version="1.1" xmlns="http://www.w3.org/2000/svg" xmlns:xlink="http://www.w3.org/1999/xlink" x="0px" y="0px"
	 viewBox="0 0 500 500" style="enable-background:new 0 0 500 500;" xml:space="preserve">
<g id="Background_Simple">
	<g>
		<path style="fill:#92E3A9;" d="M472.436,223.961C457.306,150.782,409.4,88.582,342.4,55.492C335.372,52.021,327.913,48.517,320,45
			c-99-44-156-6-185,38S70,203,47,240s-53,115,5,169s113,36,151,21s76-2,146-2s128-54,132-121
			C482.464,282.478,478.302,252.331,472.436,223.961z"/>
		<path style="opacity:0.7;fill:#FFFFFF;" d="M472.436,223.961C457.306,150.782,409.4,88.582,342.4,55.492
			C335.372,52.021,327.913,48.517,320,45c-99-44-156-6-185,38S70,203,47,240s-53,115,5,169s113,36,151,21s76-2,146-2s128-54,132-121
			C482.464,282.478,478.302,252.331,472.436,223.961z"/>
	</g>
</g>
<g id="Plant">
	<path style="fill:#263238;" d="M439.655,335.739c-3.115-0.335-6.817,3.934-7.956,6.49c-0.098,0.221-1.24,3.852-1.182,3.852
		c0,0,0.053-0.001,0.066-0.001c-0.59,0.67-1.214,1.394-1.88,2.2c-1.212,1.489-2.567,3.182-3.918,5.121
		c-0.025-3.014-0.558-9.272-4.536-9.651c-5.25-0.5-6.75,5.5-3.5,8.75c2.28,2.28,5.292,2.59,6.89,2.573
		c-1.007,1.503-2.019,3.118-2.963,4.869c-1.303,2.41-2.551,5.01-3.49,7.857c-0.011,0.032-0.018,0.067-0.028,0.099
		c0.016-0.918-0.025-3.486-0.05-3.682c-0.36-2.775-2.685-7.925-5.767-8.495c-2.22-0.41-4.1,1.329-4.277,3.488
		c-0.18,2.204,1.418,4.411,2.977,5.803c1.758,1.57,6.637,3.091,7.026,3.21c-0.87,2.719-1.541,5.58-2.061,8.512
		c-0.299,1.676-0.549,3.374-0.777,5.079c-0.012-0.794-0.028-1.504-0.041-1.603c-0.36-2.775-2.686-7.925-5.767-8.494
		c-2.22-0.41-4.1,1.329-4.277,3.487c-0.181,2.205,1.418,4.411,2.977,5.804c1.582,1.412,5.715,2.793,6.814,3.143
		c-0.081,0.655-0.169,1.308-0.247,1.964c-0.376,3.144-0.737,6.284-1.186,9.353c-0.158,1.082-0.353,2.141-0.544,3.201
		c-0.011-0.705-0.026-1.299-0.038-1.389c-0.36-2.775-2.685-7.925-5.767-8.494c-2.22-0.41-4.1,1.329-4.277,3.488
		c-0.181,2.204,1.418,4.411,2.977,5.803c1.509,1.348,5.313,2.656,6.617,3.079c-0.229,1.08-0.456,2.162-0.726,3.199
		c-0.201,0.703-0.345,1.395-0.585,2.09c-0.224,0.693-0.445,1.38-0.665,2.06c-0.471,1.294-0.948,2.632-1.439,3.882
		c-0.335,0.872-0.67,1.697-1.005,2.53c0.17-1.075,0.457-3.185,0.461-3.365c0.043-1.859-0.617-4.88-1.931-7.004
		c0.008-0.274-0.008-0.548-0.051-0.82c-0.344-2.138-2.353-3.727-4.534-3.146c-3.028,0.806-4.948,6.121-5.092,8.915
		c-0.009,0.165,0.1,1.963,0.186,3.097c-0.152-0.659-0.293-1.3-0.458-1.976c-0.317-1.339-0.674-2.666-1.052-4.096
		c-0.207-0.684-0.416-1.374-0.627-2.072c-0.194-0.696-0.488-1.407-0.731-2.118c-0.599-1.637-1.285-3.268-2.013-4.895
		c1.172-0.281,5.32-1.338,6.985-2.616c1.658-1.272,3.416-3.354,3.401-5.565c-0.016-2.166-1.76-4.04-4.005-3.796
		c-3.115,0.338-5.818,5.301-6.384,8.041c-0.035,0.171-0.22,2.183-0.3,3.29c-0.445-0.975-0.885-1.95-1.367-2.921
		c-1.392-2.804-2.889-5.599-4.369-8.393c-0.454-0.856-0.896-1.714-1.342-2.571c0.418-0.095,5.375-1.246,7.241-2.677
		c1.658-1.272,3.417-3.354,3.401-5.565c-0.016-2.166-1.76-4.04-4.005-3.796c-3.115,0.339-5.818,5.301-6.384,8.041
		c-0.042,0.207-0.304,3.102-0.334,3.841c-0.981-1.889-1.941-3.78-2.812-5.683c-1.205-2.624-2.243-5.265-3.059-7.898
		c0.195-0.044,5.374-1.221,7.285-2.687c1.658-1.272,3.417-3.353,3.401-5.565c-0.015-2.166-1.761-4.04-4.005-3.796
		c-3.115,0.338-5.819,5.301-6.384,8.041c-0.037,0.18-0.239,2.387-0.31,3.438c-0.098,0.01-0.08,0.008-0.178,0.019
		c-0.84-2.832-1.297-5.68-1.594-8.368c-0.175-1.556-0.255-3.053-0.3-4.512c0.987-0.12,5.492-0.72,7.357-1.849
		c1.788-1.082,3.764-2.958,3.991-5.158c0.222-2.154-1.306-4.209-3.564-4.213c-3.133-0.006-6.365,4.63-7.228,7.291
		c-0.047,0.145-0.361,1.669-0.574,2.782c-0.01-0.658-0.033-1.338-0.03-1.969c0.004-2.369,0.154-4.539,0.302-6.459
		c0.093-1.091,0.199-2.076,0.308-2.997c0.907-0.624,4.531-3.182,5.646-5.01c1.088-1.784,1.977-4.36,1.165-6.417
		c-0.796-2.014-3.099-3.134-5.104-2.097c-2.784,1.439-3.516,7.042-3.055,9.802c0.04,0.238,1.091,3.897,1.139,3.865
		c0,0,0.044-0.03,0.055-0.038c-0.122,0.884-0.243,1.833-0.355,2.872c-0.19,1.921-0.388,4.093-0.444,6.472
		c-0.011,0.436-0.017,0.887-0.023,1.336c-1.194-1.84-4.962-7.002-9.032-5.906c-4.932,1.328-3.794,5.69,0.19,6.639
		c3.332,0.793,7.543,0.196,8.835-0.021c-0.009,1.791,0.037,3.676,0.214,5.635c0.242,2.729,0.636,5.587,1.423,8.479
		c0.009,0.033,0.022,0.066,0.031,0.098c-0.493-0.774-1.944-2.893-2.073-3.044c-1.831-2.116-6.612-5.128-9.496-3.904
		c-2.078,0.883-2.687,3.37-1.643,5.268c1.066,1.938,3.616,2.897,5.684,3.198c2.332,0.34,7.241-1.083,7.631-1.198
		c0.775,2.748,1.793,5.504,2.977,8.237c0.675,1.563,1.404,3.117,2.154,4.665c-0.448-0.656-0.853-1.239-0.918-1.314
		c-1.831-2.116-6.612-5.128-9.496-3.904c-2.078,0.882-2.686,3.37-1.643,5.268c1.065,1.939,3.616,2.897,5.684,3.199
		c2.098,0.306,6.307-0.824,7.417-1.138c0.294,0.591,0.581,1.185,0.877,1.774c1.422,2.83,2.852,5.648,4.17,8.455
		c0.465,0.989,0.887,1.98,1.313,2.97c-0.398-0.582-0.739-1.069-0.798-1.138c-1.831-2.116-6.612-5.128-9.496-3.904
		c-2.078,0.882-2.686,3.37-1.643,5.268c1.066,1.938,3.616,2.897,5.684,3.198c2.003,0.292,5.897-0.716,7.217-1.082
		c0.405,1.027,0.813,2.055,1.159,3.068c0.221,0.697,0.482,1.354,0.665,2.066c0.196,0.702,0.39,1.397,0.582,2.085
		c0.321,1.339,0.661,2.718,0.941,4.032c0.202,0.912,0.378,1.785,0.557,2.664c-0.451-0.99-1.376-2.909-1.472-3.061
		c-1.489-2.369-5.758-6.071-8.795-5.297c-2.187,0.558-3.166,2.924-2.422,4.958c0.76,2.077,3.136,3.411,5.134,4.023
		c2.2,0.673,7.072,0.058,7.68-0.023c0.292,1.456,0.562,2.874,0.795,4.217c0.821,4.653,1.327,8.559,1.643,11.293
		c0.056,0.486,0.104,0.92,0.147,1.329h-9.43l2.119,41.343h18.718l2.119-41.343h-8.786c0.065-0.135,0.127-0.261,0.195-0.403
		c1.206-2.511,2.877-6.121,4.683-10.537c0.574-1.394,1.159-2.895,1.746-4.443c0.59,0.123,5.412,1.103,7.66,0.596
		c2.038-0.461,4.507-1.614,5.419-3.629c0.894-1.973,0.094-4.406-2.046-5.125c-2.97-0.998-7.504,2.375-9.165,4.627
		c-0.098,0.133-1,1.693-1.554,2.686c0.237-0.633,0.473-1.246,0.708-1.901c0.474-1.292,0.909-2.595,1.382-3.996
		c0.205-0.684,0.411-1.376,0.62-2.074c0.222-0.688,0.369-1.443,0.559-2.17c0.404-1.696,0.73-3.434,1.021-5.193
		c1.133,0.412,5.175,1.818,7.27,1.672c2.084-0.147,4.699-0.913,5.906-2.766c1.182-1.815,0.76-4.341-1.246-5.376
		c-2.785-1.436-7.777,1.212-9.761,3.185c-0.124,0.123-1.387,1.699-2.065,2.578c0.166-1.059,0.338-2.114,0.471-3.19
		c0.386-3.107,0.679-6.264,0.986-9.411c0.093-0.964,0.198-1.924,0.299-2.885c0.401,0.151,5.171,1.927,7.516,1.762
		c2.085-0.146,4.699-0.912,5.907-2.766c1.182-1.815,0.76-4.341-1.246-5.376c-2.785-1.436-7.777,1.211-9.76,3.185
		c-0.15,0.149-1.965,2.419-2.398,3.019c0.224-2.116,0.466-4.224,0.79-6.291c0.442-2.854,1.034-5.629,1.806-8.275
		c0.187,0.071,5.156,1.946,7.558,1.778c2.085-0.146,4.7-0.912,5.907-2.766c1.182-1.815,0.76-4.341-1.246-5.376
		c-2.785-1.436-7.777,1.211-9.76,3.185c-0.13,0.13-1.514,1.858-2.154,2.695c-0.088-0.045-0.072-0.037-0.159-0.082
		c0.861-2.825,2.051-5.452,3.286-7.857c0.713-1.394,1.472-2.687,2.239-3.928c0.89,0.444,4.978,2.429,7.156,2.516
		c2.088,0.083,4.771-0.391,6.175-2.1c1.374-1.674,1.232-4.232-0.648-5.48c-2.61-1.734-7.863,0.35-10.051,2.094
		c-0.082,0.065-0.632,0.609-1.225,1.204c0.004-0.131,0.008-0.282,0.011-0.455c0.087-0.135,0.175-0.275,0.261-0.405
		c1.311-1.974,2.633-3.701,3.816-5.221c0.68-0.859,1.311-1.622,1.91-2.33c1.101-0.019,5.534-0.154,7.473-1.064
		c1.891-0.888,4.055-2.546,4.512-4.71C443.203,338.185,441.899,335.98,439.655,335.739z M405.161,419.44
		c-1.883,4.333-3.616,7.871-4.86,10.326c-0.251,0.495-0.477,0.933-0.686,1.336h-0.208c-0.061-0.479-0.13-1.003-0.211-1.592
		c-0.38-2.759-0.977-6.692-1.907-11.371c-0.29-1.479-0.63-3.055-0.995-4.668c0.366-0.145,2.444-0.986,4.285-2.015
		c1.604,1.737,5.713,3.769,6.245,4.028C406.264,416.859,405.707,418.191,405.161,419.44z M424.215,355.052
		c-0.078,0.079-0.157,0.159-0.23,0.235c0.049-0.076,0.097-0.154,0.146-0.23C424.158,355.055,424.189,355.054,424.215,355.052z"/>
</g>
<g id="Icons">
	<path style="opacity:0.3;fill:none;stroke:#000000;stroke-miterlimit:10;" d="M287.587,296.073
		c-2.978,11.815,4.212,23.851,16.028,26.829c6.777,1.708,13.618,0.059,18.789-3.878l8.547,8.181
		c-0.424,1.758,0.043,3.684,1.435,5.034l18.562,18.264c2.095,2.036,5.444,1.987,7.479-0.109c0.669-0.69,1.115-1.517,1.334-2.387
		c0.447-1.772-0.038-3.727-1.444-5.092l-18.562-18.265c-1.411-1.37-3.383-1.773-5.146-1.266l-8.413-8.053
		c1.952-2.412,3.44-5.257,4.247-8.458c2.978-11.815-4.211-23.851-16.026-26.829C302.601,277.068,290.565,284.258,287.587,296.073z
		 M326.597,305.906c-2.444,9.695-12.319,15.594-22.013,13.15c-9.695-2.444-15.594-12.319-13.151-22.013
		c2.444-9.695,12.319-15.594,22.014-13.15C323.142,286.336,329.041,296.211,326.597,305.906z"/>
	<g style="opacity:0.3;">
		<g>
			<path style="fill:none;stroke:#000000;stroke-miterlimit:10;" d="M206.486,58.528c5.152-11.845,16.954-20.123,30.687-20.123
				c18.473,0,33.451,14.978,33.451,33.451c0,18.48-14.978,33.451-33.451,33.451s-33.451-14.971-33.451-33.451
				c0-4.161,0.76-8.14,2.149-11.816"/>
			<path style="fill:none;stroke:#000000;stroke-width:0.5;stroke-miterlimit:10;" d="M206.11,58.39
				C211.327,46.401,223.288,38,237.174,38c18.668,0,33.856,15.188,33.856,33.856c0,18.676-15.188,33.864-33.856,33.864
				s-33.856-15.188-33.856-33.864c0-4.204,0.774-8.234,2.178-11.954"/>
		</g>
		<g>
			<path style="fill:none;stroke:#000000;stroke-miterlimit:10;" d="M214.895,61.704c3.857-8.451,12.38-14.32,22.279-14.32
				c13.516,0,24.479,10.955,24.479,24.472c0,13.524-10.962,24.479-24.479,24.479c-13.517,0-24.479-10.955-24.479-24.479
				c0-3.046,0.557-5.962,1.577-8.647"/>
			<path style="fill:none;stroke:#000000;stroke-width:0.5;stroke-miterlimit:10;" d="M214.518,61.56
				c3.929-8.596,12.605-14.587,22.655-14.587c13.719,0,24.884,11.165,24.884,24.884c0,13.726-11.165,24.884-24.884,24.884
				S212.29,85.583,212.29,71.856c0-3.097,0.564-6.056,1.606-8.792"/>
		</g>
		<g>
			<path style="fill:none;stroke:#000000;stroke-miterlimit:10;" d="M225.618,65.785c0-0.007,0.007-0.022,0.014-0.029
				c2.192-4.132,6.534-6.954,11.541-6.954c7.207,0,13.053,5.846,13.053,13.053c0,7.214-5.847,13.053-13.053,13.053
				c-7.207,0-13.053-5.839-13.053-13.053c0-1.628,0.297-3.184,0.839-4.617c0.007-0.022,0.022-0.043,0.029-0.065"/>
			<path style="fill:none;stroke:#000000;stroke-width:0.5;stroke-miterlimit:10;" d="M225.097,65.916
				c0.051-0.101,0.101-0.203,0.152-0.304h0.007c2.25-4.284,6.751-7.214,11.917-7.214c7.424,0,13.459,6.042,13.459,13.459
				c0,7.424-6.035,13.466-13.459,13.466c-7.424,0-13.459-6.042-13.459-13.466c0-1.672,0.304-3.271,0.868-4.754"/>
		</g>
		<path style="fill:none;stroke:#000000;stroke-miterlimit:10;" d="M225.835,65.829c-0.036-0.014-0.072-0.022-0.109-0.036
			l-0.094-0.036l-0.376-0.145h-0.007l-10.354-3.907l-0.376-0.145l-8.032-3.032l-0.376-0.138l-12.938-4.884l0.637-4.776
			c0.022-0.181-0.072-0.354-0.239-0.427l-10.232-4.587c-0.152-0.065-0.326-0.036-0.441,0.072c-0.123,0.109-0.166,0.275-0.116,0.434
			l2.077,6.15l-1.527-0.579c-0.427-0.159-0.897,0.058-1.056,0.478c-0.159,0.42,0.058,0.89,0.478,1.049l1.592,0.601l-4.776,3.669
			c-0.13,0.101-0.188,0.268-0.145,0.427c0.036,0.152,0.166,0.275,0.333,0.297l11.469,1.766c0.022,0.007,0.043,0.007,0.058,0.007
			c0.166,0,0.318-0.101,0.384-0.261l1.078-2.735l12.749,4.812l0.376,0.137l8.025,3.025l0.376,0.145l10.311,3.893l0.376,0.137
			l0.304,0.116"/>
		<path style="fill:none;stroke:#000000;stroke-miterlimit:10;" d="M225.618,65.785c0.036,0,0.072,0.007,0.109,0.007
			c0.036,0.014,0.072,0.022,0.109,0.036l7.373,2.786l0.81-2.431c0.108-0.333,0.42-0.557,0.767-0.557c0.007,0,0.007,0,0.014,0
			c0.355,0.007,0.666,0.239,0.767,0.579l1.476,4.79c0.116,0.376-0.058,0.789-0.413,0.97l-3.69,1.838
			c-0.116,0.058-0.239,0.087-0.362,0.087c-0.195,0-0.383-0.065-0.535-0.195c-0.246-0.217-0.34-0.564-0.239-0.876l0.883-2.656
			l-7.424-2.808c-0.109-0.043-0.203-0.101-0.275-0.181"/>
	</g>
	<g>
		<path style="opacity:0.3;fill:none;stroke:#000000;stroke-linecap:round;stroke-linejoin:round;stroke-miterlimit:10;" d="
			M123.157,416.453l8.986,2.051l2.081-9.118l-8.633-1.97c0.009-0.258,0.039-0.51,0.039-0.77c0-2.86-0.582-5.585-1.633-8.062L131,393
			l-5.831-7.312l-6.696,5.34c-2.316-2.006-5.081-3.495-8.126-4.316v-8.72h-9.352v8.376c-3.147,0.612-6.027,1.949-8.488,3.814
			l-6.771-5.399l-5.831,7.312l6.61,5.271c-1.358,2.693-2.147,5.717-2.202,8.926l-8.612,1.966l2.081,9.118l8.497-1.939
			c1.296,2.749,3.162,5.174,5.471,7.098l-3.952,8.206l8.426,4.058l3.891-8.079c1.558,0.375,3.176,0.596,4.849,0.596
			c1.342,0,2.652-0.138,3.923-0.383l4.03,8.369l8.426-4.058l-3.918-8.136C119.775,421.324,121.746,419.067,123.157,416.453z
			 M95.787,406.646c0-5.068,4.108-9.176,9.176-9.176c5.068,0,9.176,4.108,9.176,9.176c0,5.068-4.108,9.176-9.176,9.176
			C99.895,415.822,95.787,411.714,95.787,406.646z"/>
		<path style="opacity:0.3;fill:none;stroke:#000000;stroke-linecap:round;stroke-linejoin:round;stroke-miterlimit:10;" d="
			M140.388,371.634l7.373,1.683l1.707-7.48l-7.083-1.617c0.008-0.211,0.032-0.418,0.032-0.632c0-2.347-0.478-4.582-1.34-6.615
			l5.745-4.581l-4.784-5.999l-5.494,4.381c-1.9-1.645-4.168-2.868-6.667-3.541v-7.154h-7.673v6.872
			c-2.582,0.502-4.945,1.599-6.964,3.129l-5.555-4.43l-4.784,5.999l5.423,4.324c-1.114,2.21-1.762,4.691-1.806,7.324l-7.066,1.613
			l1.707,7.48l6.971-1.591c1.063,2.255,2.594,4.245,4.489,5.823l-3.242,6.733l6.913,3.329l3.192-6.629
			c1.278,0.308,2.605,0.488,3.978,0.488c1.101,0,2.176-0.113,3.219-0.314l3.307,6.866l6.913-3.329l-3.215-6.675
			C137.613,375.63,139.23,373.778,140.388,371.634z M117.932,363.588c0-4.158,3.37-7.528,7.528-7.528
			c4.158,0,7.528,3.37,7.528,7.528c0,4.158-3.37,7.528-7.528,7.528C121.303,371.117,117.932,367.746,117.932,363.588z"/>
	</g>
	<g style="opacity:0.3;">
		
			<ellipse transform="matrix(0.3827 -0.9239 0.9239 0.3827 -10.9405 75.6354)" style="fill:none;stroke:#000000;stroke-miterlimit:10;" cx="51.128" cy="46.004" rx="18.951" ry="18.951"/>
		<g>
			<path style="fill:none;stroke:#000000;stroke-miterlimit:10;" d="M57.409,44.727h-12.35c-2.411,0-4.365,1.954-4.365,4.365v10.359
				c2.884,2.241,6.498,3.589,10.434,3.589c4.031,0,7.729-1.408,10.647-3.748v-10.2C61.775,46.681,59.82,44.727,57.409,44.727z"/>
			<path style="fill:none;stroke:#000000;stroke-miterlimit:10;" d="M51.021,42.81c3.469,0,6.281-2.812,6.281-6.281
				c0-3.469-2.812-6.281-6.281-6.281c-3.469,0-6.281,2.812-6.281,6.281C44.74,39.998,47.552,42.81,51.021,42.81z"/>
		</g>
	</g>
	<g style="opacity:0.3;">
		
			<ellipse transform="matrix(0.3849 -0.923 0.923 0.3849 -64.7556 267.222)" style="fill:none;stroke:#000000;stroke-miterlimit:10;" cx="168.107" cy="182.194" rx="18.951" ry="18.951"/>
		<g>
			<path style="fill:none;stroke:#000000;stroke-miterlimit:10;" d="M174.388,180.916h-12.35c-2.411,0-4.365,1.954-4.365,4.365
				v10.359c2.884,2.242,6.498,3.589,10.434,3.589c4.031,0,7.729-1.408,10.647-3.748v-10.2
				C178.753,182.871,176.799,180.916,174.388,180.916z"/>
			<path style="fill:none;stroke:#000000;stroke-miterlimit:10;" d="M168,179c3.469,0,6.281-2.812,6.281-6.281
				c0-3.469-2.812-6.281-6.281-6.281c-3.469,0-6.281,2.812-6.281,6.281C161.719,176.188,164.531,179,168,179z"/>
		</g>
	</g>
	<g style="opacity:0.3;">
		
			<ellipse transform="matrix(0.3849 -0.923 0.923 0.3849 103.1632 535.1854)" style="fill:none;stroke:#000000;stroke-miterlimit:10;" cx="453.107" cy="190.194" rx="18.951" ry="18.951"/>
		<g>
			<path style="fill:none;stroke:#000000;stroke-miterlimit:10;" d="M459.388,188.916h-12.35c-2.411,0-4.365,1.954-4.365,4.365
				v10.359c2.884,2.242,6.498,3.589,10.434,3.589c4.031,0,7.729-1.408,10.647-3.748v-10.2
				C463.753,190.871,461.799,188.916,459.388,188.916z"/>
			<path style="fill:none;stroke:#000000;stroke-miterlimit:10;" d="M453,187c3.469,0,6.281-2.812,6.281-6.281
				c0-3.469-2.812-6.281-6.281-6.281c-3.469,0-6.281,2.812-6.281,6.281C446.719,184.188,449.531,187,453,187z"/>
		</g>
	</g>
	<g style="opacity:0.3;">
		
			<ellipse transform="matrix(0.3849 -0.923 0.923 0.3849 176.4071 341.0886)" style="fill:none;stroke:#000000;stroke-miterlimit:10;" cx="344.107" cy="38.194" rx="18.951" ry="18.951"/>
		<g>
			<path style="fill:none;stroke:#000000;stroke-miterlimit:10;" d="M350.388,36.916h-12.35c-2.411,0-4.365,1.954-4.365,4.365V51.64
				c2.884,2.242,6.498,3.589,10.434,3.589c4.031,0,7.729-1.408,10.647-3.748v-10.2C354.753,38.871,352.799,36.916,350.388,36.916z"
				/>
			<path style="fill:none;stroke:#000000;stroke-miterlimit:10;" d="M344,35c3.469,0,6.281-2.812,6.281-6.281
				c0-3.469-2.812-6.281-6.281-6.281c-3.469,0-6.281,2.812-6.281,6.281C337.719,32.188,340.531,35,344,35z"/>
		</g>
	</g>
</g>
<g id="Character_5">
	<g>
		<g>
			<path style="fill:#263238;stroke:#263238;stroke-linecap:round;stroke-linejoin:round;stroke-miterlimit:10;" d="M388.195,215.57
				c0,0-6.395,0.026-13.064,6.991c-6.669,6.965-10.383,16.549-8.827,19.391c1.556,2.841,3.313,7.637,3.269,8.747
				c-0.044,1.11-8.955,8.543-6.877,12.239c2.078,3.696,2.546,5.939,0.592,6.14c-1.954,0.201-5.395,2.845-4.916,4.81
				c0.478,1.965,3.744,3.762,2.268,5.928c-1.475,2.166-2.575,1.844-2.684,4.62c-0.109,2.776,2.446,5.124,0.969,5.471
				c-1.477,0.347-4.274,0.793-3.518,2.769c0.756,1.976,2.601,4.551,2.601,4.551s9.833,11.508,30.83,14.838
				c20.997,3.33,41.983-14.191,45.146-16.846c3.163-2.655,3.751-3.466,3.816-5.132s-0.968-3.652-1.447-5.617
				c-0.478-1.965,0.508-5.818,0.54-6.651c0.033-0.833-1.823-3.13-3.167-4.295c-1.344-1.165-1.501-4.229-0.837-6.983
				c0.665-2.754-2.035-4.806-3.112-5.683c-1.077-0.877-1.812-3.408-0.88-5.873c0.931-2.465-2.301-5.095-3.645-6.26
				c-1.344-1.165-1.523-3.674-0.859-6.428c0.665-2.754-2.714-8.725-4.559-11.3c-1.845-2.575-4.025-10.723-14.442-14.47
				C394.977,212.779,388.195,215.57,388.195,215.57z"/>
			<g>
				<path style="fill:#FFFFFF;stroke:#263238;stroke-linecap:round;stroke-linejoin:round;stroke-miterlimit:10;" d="
					M365.021,315.96c8.578,4.884,18.502,7.679,29.079,7.679c12.73,0,24.51-4.05,34.139-10.919c0.042-5.293,0.05-9.737-0.026-11.65
					c-0.241-6.113-1.915-14.832-4.115-16.609c-2.199-1.777-6.781-3.194-13.509-5.058c-6.728-1.865-16.871-2.53-16.871-2.53
					s-11.975,6.861-20.12,9.577c-8.145,2.717-8.497,20.833-8.319,25.351C365.311,312.573,365.203,314.047,365.021,315.96z"/>
				<path style="fill:#FFFFFF;stroke:#263238;stroke-linecap:round;stroke-linejoin:round;stroke-miterlimit:10;" d="
					M365.021,315.96c8.578,4.884,18.502,7.679,29.079,7.679c12.73,0,24.51-4.05,34.139-10.919c0.042-5.293,0.05-9.737-0.026-11.65
					c-0.122-3.089-0.414-1.86-1.151-5.048c-3.865,3.633-12.432,9.618-29.283,11.568c-15.373,1.778-27.981-4.029-31.913-6.461
					c-0.641,4.521-0.661,8.784-0.587,10.672C365.311,312.573,365.203,314.047,365.021,315.96z"/>
			</g>
			<path style="fill:#FFFFFF;stroke:#263238;stroke-linecap:round;stroke-miterlimit:10;" d="M384.79,293.463
				c0,0-0.262-6.645-0.502-12.758c-0.241-6.113-1.143-8.74-1.143-8.74s4.315,1.427,8.579,1.526
				c4.263,0.098,10.657-6.542,11.146-7.627c0.49-1.084,1.214-2.976,1.214-2.976s0.674,10.355,1.628,14.311
				c0.954,3.955,1.58,6.327,1.58,6.327"/>
			<path style="fill:#263238;stroke:#263238;stroke-linecap:round;stroke-linejoin:round;stroke-miterlimit:10;" d="
				M388.693,282.539c6.479-3.565,12.063-11.822,12.063-11.822l0.373-2.792c-2.301,2.323-6.384,5.634-9.406,5.565
				c-4.263-0.098-8.579-1.526-8.579-1.526s0.902,2.626,1.143,8.74c0.054,1.375,0.109,2.775,0.162,4.123
				C385.497,284.278,386.869,283.543,388.693,282.539z"/>
			<g>
				<g>
					<path style="fill:#FFFFFF;stroke:#263238;stroke-linecap:round;stroke-linejoin:round;stroke-miterlimit:10;" d="
						M413.479,247.474l-4.254-0.298c0,0,0.012-0.612-0.06-1.626c-0.153-0.2-0.307-0.401-0.451-0.589
						c-0.686-0.896-0.984-0.668-2.268-1.107c-1.283-0.439-1.53-2.619-1.249-4.728c0.281-2.109-2.285-2.988-4.905-5.483
						c-2.145-2.044-2.64-5.665-2.749-6.909c-1.003-0.308-1.988-0.505-2.921-0.621c-0.554,1.373-1.739,3.938-3.488,5.774
						c-2.495,2.619-4.306,2.11-5.044,3.622c-0.738,1.512-2.302,3.182-3.392,3.305c-1.09,0.123-3.727-0.228-3.902,1.09
						c-0.175,1.318-1.247,3.322-2.109,3.744c-0.187,0.091-0.417,0.204-0.658,0.322c-0.036,3.033,0.148,5.524,0.079,6.041
						c-0.141,1.055-1.053,7.91,1.32,12.251c2.374,4.341,6.752,13.78,13.608,14.693c6.855,0.913,13.885-7.543,15.256-9.776
						c1.371-2.233,2.811-9.018,2.811-9.018s2.355-1.565,4.06-4.29C414.868,251.148,413.479,247.474,413.479,247.474z"/>
					<path style="fill:#FFFFFF;stroke:#263238;stroke-linecap:round;stroke-linejoin:round;stroke-miterlimit:10;" d="
						M376.881,240.185c0.246-1.846,2.513-4.764,3.304-4.659c0.791,0.105,3.638-1.125,4.341-2.374
						c0.703-1.248,0.615-2.602,2.003-2.953c1.389-0.352,1.634-2.198,1.634-2.198s-4.183,3.2-6.433,3.974
						c-2.25,0.774-3.146,1.459-4.341,2.374c-0.775,2.021-1.127,4.594-1.273,7.072C376.473,241.242,376.789,240.881,376.881,240.185z
						"/>
				</g>
				<path style="fill:none;stroke:#263238;stroke-linecap:round;stroke-linejoin:round;stroke-miterlimit:10;" d="M388.152,262.349
					c0,0,1.266,2.584,4.676,1.159"/>
				<path style="fill:none;stroke:#263238;stroke-linecap:round;stroke-linejoin:round;stroke-miterlimit:10;" d="M387.625,266.304
					c0,0,4.992,2.812,7.628-0.863"/>
				<path style="fill:#263238;" d="M384.468,251.691c-0.039,1.101-0.547,1.977-1.134,1.956c-0.587-0.021-1.032-0.93-0.993-2.031
					c0.039-1.101,0.547-1.977,1.134-1.956C384.062,249.681,384.507,250.59,384.468,251.691z"/>
				<path style="fill:#263238;" d="M397.809,252.261c-0.039,1.101-0.547,1.977-1.134,1.956c-0.587-0.021-1.032-0.93-0.993-2.031
					s0.547-1.977,1.134-1.956C397.404,250.25,397.848,251.159,397.809,252.261z"/>
				<path style="fill:none;stroke:#263238;stroke-linecap:round;stroke-linejoin:round;stroke-miterlimit:10;" d="M379.501,246.706
					c0,0,1.634-2.198,5.783-1.108"/>
				<path style="fill:none;stroke:#263238;stroke-linecap:round;stroke-linejoin:round;stroke-miterlimit:10;" d="M394.583,246.3
					c0,0,4.464-1.284,7.277,1.774"/>
				<path style="fill:none;stroke:#263238;stroke-linecap:round;stroke-linejoin:round;stroke-miterlimit:10;" d="M386.005,246.231
					c0,0,2.936,4.148,2.444,7.839"/>
			</g>
			<path style="fill:#92E3A9;stroke:#263238;stroke-linecap:round;stroke-linejoin:round;stroke-miterlimit:10;" d="
				M374.693,320.351c0.672-4.565,1.323-9.079,1.87-12.722c1.687-11.247,7.511-25.585,7.511-25.585
				c-2.147-0.448-22.841,8.087-27.224,11.72c-1.91,1.583-4.116,5.909-6.156,10.755C357.197,311.617,365.414,317.111,374.693,320.351
				z"/>
			<g>
				<path style="fill:#92E3A9;stroke:#263238;stroke-linecap:round;stroke-linejoin:round;stroke-miterlimit:10;" d="
					M444.015,295.969c-3.232-3.815-7.219-6.7-10.518-8.024c-2.928-2.055-6.194-3.543-8.375-4.59
					c-4.613-2.214-16.965-4.922-16.965-4.922s-1.106,31.742,0.614,43.35C423.569,317.987,436.113,308.585,444.015,295.969z"/>
			</g>
		</g>
		
			<ellipse transform="matrix(0.7071 -0.7071 0.7071 0.7071 -71.7923 356.2208)" style="fill:none;stroke:#263238;stroke-miterlimit:10;" cx="394.1" cy="264.771" rx="58.867" ry="58.867"/>
	</g>
</g>
<g id="Character_4">
	<g>
		
			<ellipse transform="matrix(0.9746 -0.2241 0.2241 0.9746 -17.1374 91.3981)" style="fill:#92E3A9;" cx="394.1" cy="121.201" rx="58.867" ry="58.867"/>
		<g>
			<path style="fill:#FFFFFF;stroke:#263238;stroke-miterlimit:10;" d="M394.1,180.068c18.474,0,34.954-8.514,45.746-21.828
				L416.5,140l-17-4.833V134.5l-4.25,0.333L391,134.5v0.667l-17,1.333l-26.479,20.687
				C358.287,171.103,375.144,180.068,394.1,180.068z"/>
			<path style="fill:#FFFFFF;stroke:#263238;stroke-miterlimit:10;" d="M378.5,133c0,0-4.5,1-6,1s-7,24.5-7,24.5l19-6l8,8l6.5-7.5
				l19,8.5c0,0-1.5-23-1.5-26s-17.5-7-17.5-7L378.5,133z"/>
			<polygon style="fill:#D4D4D4;stroke:#263238;stroke-miterlimit:10;" points="376,123 378,140.5 391.5,154 407,138.5 408,118.5 
							"/>
			<polygon style="fill:#263238;stroke:#263238;stroke-miterlimit:10;" points="407.315,132.197 408,118.5 406.225,118.749 
				386.247,133.1 			"/>
			<g>
				<path style="fill:#D4D4D4;stroke:#263238;stroke-miterlimit:10;" d="M397.171,72.104c0,0,15.014,3.847,15.966,10.611
					c0.952,6.763,0.199,20.825,0.199,20.825s3.213-6.069,5.216-0.476c2.003,5.593-1.666,9.262-2.955,9.659
					c-1.289,0.397-2.995,0.357-2.995,0.357s-4.145,9.461-6.406,11.286c-2.261,1.825-10.71,9.223-14.062,10.254
					c-3.352,1.031-9.163,1.408-10.829-0.337s-8.469-13.764-8.668-16.244c-0.198-2.479-1.726-24.871-1.488-27.767
					c0.238-2.896-1.171-8.39,5.017-13.963C382.355,70.736,397.171,72.104,397.171,72.104z"/>
				<path style="fill:#263238;stroke:#263238;stroke-miterlimit:10;" d="M376.167,76.31c6.188-5.574,21.004-4.205,21.004-4.205
					s15.014,3.847,15.966,10.611c0.952,6.763,0.199,20.825,0.199,20.825s-1.607,3.035-3.292,2.142
					c-1.686-0.892,1.13-8.251,1.13-8.251s-0.972-2.241-1.765-4.819c-0.794-2.578-0.377-5.811,0.634-8.945
					c1.011-3.134-6.605-9.54-10.711-9.123c-4.106,0.417-9.381,3.451-12.951,2.856s-4.205-2.658-4.205-2.658
					s-0.932-0.278-4.284,0.754c-0.598,0.184-1.194,0.488-1.773,0.857C376.136,76.339,376.151,76.324,376.167,76.31z"/>
				<g>
					<path style="fill:none;stroke:#263238;stroke-width:2;stroke-linecap:round;stroke-miterlimit:10;" d="M388.875,96.127
						l17.755,1.734c0,0,0.539,6.275-0.421,7.923c-0.96,1.648-2.511,3.173-7.152,3.56c-4.641,0.387-9.502-1.121-10.053-3.208
						C388.453,104.05,388.875,96.127,388.875,96.127z"/>
					<path style="fill:none;stroke:#263238;stroke-width:2;stroke-linecap:round;stroke-miterlimit:10;" d="M383.88,96.021
						l-17.839,0c0,0-1.146,6.193-0.351,7.926c0.796,1.734,2.191,3.402,6.772,4.239c4.581,0.836,9.566-0.192,10.317-2.215
						C383.529,103.947,383.88,96.021,383.88,96.021z"/>
					<path style="fill:none;stroke:#263238;stroke-width:2;stroke-linecap:round;stroke-miterlimit:10;" d="M388.875,96.127
						c0,0-2.884-1.346-4.995-0.106"/>
					<path style="fill:none;stroke:#263238;stroke-width:2;stroke-linecap:round;stroke-miterlimit:10;" d="M388.592,98.791
						c0,0-2.851-2.104-4.891-0.31"/>
					
						<line style="fill:none;stroke:#263238;stroke-width:2;stroke-linecap:round;stroke-miterlimit:10;" x1="406.63" y1="97.861" x2="413.686" y2="103.254"/>
					
						<line style="fill:none;stroke:#263238;stroke-width:2;stroke-linecap:round;stroke-miterlimit:10;" x1="366.041" y1="96.021" x2="371.131" y2="98.072"/>
				</g>
				<path style="fill:#263238;" d="M393.336,104.617c0.191,0.621,0.85,0.97,1.471,0.779c0.621-0.191,0.97-0.85,0.779-1.471
					c-0.191-0.621-0.85-0.97-1.471-0.779C393.494,103.337,393.145,103.995,393.336,104.617z"/>
				<path style="fill:#263238;" d="M375.097,103.887c0.191,0.621,0.85,0.97,1.471,0.779c0.621-0.191,0.97-0.85,0.779-1.471
					c-0.191-0.621-0.85-0.97-1.471-0.779C375.254,102.607,374.906,103.266,375.097,103.887z"/>
				<path style="fill:none;stroke:#263238;stroke-width:2;stroke-linecap:round;stroke-miterlimit:10;" d="M392.554,91.869
					c0,0,5.055-3.37,8.617,1.885"/>
				<path style="fill:none;stroke:#263238;stroke-width:2;stroke-linecap:round;stroke-miterlimit:10;" d="M381.269,93.527
					c0,0-2.241-3.07-7.651,0.41"/>
				<path style="fill:none;stroke:#263238;stroke-miterlimit:10;" d="M383.91,102.954c0,0-0.61,4.336-1.849,5.365
					c-1.239,1.029-4.345,3.152-2.168,3.908c2.177,0.756,6.549,1.485,8.207,0.974c1.658-0.51,1.849-1.995,1.849-1.995"/>
				<path style="fill:none;stroke:#263238;stroke-miterlimit:10;" d="M384.011,118.866c0,0,4.126,1.193,8.635-0.583
					c4.509-1.776,4.682-4.163,4.682-4.163"/>
				<line style="fill:none;stroke:#263238;stroke-miterlimit:10;" x1="396.052" y1="113.346" x2="399.112" y2="114.867"/>
			</g>
		</g>
		
			<ellipse transform="matrix(0.9746 -0.2241 0.2241 0.9746 -17.1374 91.3981)" style="fill:none;stroke:#263238;stroke-miterlimit:10;" cx="394.1" cy="121.201" rx="58.867" ry="58.867"/>
	</g>
</g>
<g id="Character_3">
	<g>
		<circle style="fill:none;stroke:#263238;stroke-miterlimit:10;" cx="104.1" cy="121.738" r="58.867"/>
		<path style="fill:#263238;stroke:#263238;stroke-linecap:round;stroke-linejoin:round;stroke-miterlimit:10;" d="M115.027,81.763
			c0,0,3.896,2.226,7.606-0.185c3.71-2.412,1.113-3.525,0.371-5.009c-0.742-1.484,1.113-1.855,1.484-3.896
			c0.371-2.041-0.928-3.71-1.67-3.896c-0.742-0.186-0.556-2.226-0.556-4.267c0-2.041-2.412-3.896-3.525-3.896
			s-1.855-1.484-2.597-3.339c-0.742-1.855-2.226-3.525-4.824-2.412c-2.597,1.113-3.896,1.113-5.195-0.742
			c-1.299-1.855-4.452-2.226-5.566-1.299c-1.113,0.928-1.67,2.783-3.896,0.928c-2.226-1.855-5.009-1.484-6.308-0.185
			c-1.299,1.299-1.113,2.783-3.154,2.041c-2.041-0.742-5.38,0.371-6.122,2.597c-0.742,2.226-4.823,4.638-6.308,4.081
			c-1.484-0.556-4.081,0-2.783,2.783c1.299,2.783-0.186,4.638-1.299,4.638c-1.113,0-3.525,0.742-2.226,3.154
			c1.299,2.412,2.226,4.267,0.742,5.009c-1.484,0.742-3.896,0.928-2.041,4.081c1.855,3.154,3.339,2.968,2.783,4.823
			c-0.557,1.855-1.67,2.412,0,3.71s3.71,1.855,3.71,2.968s-2.226,1.67,0.371,2.597c2.597,0.928,4.638,1.113,4.638,1.113
			s3.71-10.018,14.285-13.357c10.574-3.339,16.697-2.968,19.108-1.67C114.47,83.433,115.027,81.763,115.027,81.763z"/>
		<path style="fill:#FFFFFF;stroke:#263238;stroke-miterlimit:10;" d="M104.1,180.605c-4.567,0-9.009-0.528-13.276-1.512
			c-2.347-12.217-4.641-24.548-4.641-24.548s10.043-2.762,13.056-3.264c3.013-0.502,12.052-1.507,12.052-1.507l13.559,6.277
			c0,0,1.616,8.946,3.243,19.449C120.765,178.777,112.647,180.605,104.1,180.605z"/>
		<g>
			<path style="fill:#263238;" d="M87.052,159.197l37.574-3.249l0.223,0.103c0,0,0.324,1.792,0.826,4.709l-37.717,3.261
				C87.618,162.211,87.311,160.577,87.052,159.197z"/>
			<path style="fill:#263238;" d="M89.318,171.205l37.57-3.249c0.251,1.529,0.514,3.152,0.781,4.835l-37.432,3.237
				C89.924,174.393,89.616,172.776,89.318,171.205z"/>
		</g>
		<g>
			<path style="fill:#B5B5B5;stroke:#263238;stroke-miterlimit:10;" d="M113.3,142.743c0,0,2.762,10.546,3.013,16.07
				c0.251,5.524-5.524,10.043-13.81,9.29c-8.286-0.753-9.792-9.792-9.792-12.052c0-2.26-0.502-21.342-0.502-21.342
				s4.017,3.515,8.788,6.528C105.767,144.25,113.3,142.743,113.3,142.743z"/>
			<path style="fill:#263238;stroke:#263238;stroke-miterlimit:10;" d="M105.767,151.783c-7.847-3.76-11.754-11.137-13.526-15.828
				c-0.02-0.785-0.033-1.246-0.033-1.246s4.017,3.515,8.788,6.528c4.771,3.013,12.303,1.507,12.303,1.507s1.726,6.591,2.573,12.082
				C113.013,154.492,109.608,153.623,105.767,151.783z"/>
		</g>
		<g>
			<path style="fill:#B5B5B5;stroke:#263238;stroke-linecap:round;stroke-linejoin:round;stroke-miterlimit:10;" d="
				M124.619,109.922c0,0,3.999-5.199,4.799,2c0.8,7.199-6.799,14.397-6.799,14.397v-16.397"/>
			<path style="fill:#B5B5B5;stroke:#263238;stroke-linecap:round;stroke-linejoin:round;stroke-miterlimit:10;" d="M78.877,102.437
				c0,0,0.318-11.136,4.455-17.5s12.855-10.267,22.591-8.591c12.073,2.078,17.5,11.137,19.409,18.773
				c1.909,7.636-0.318,18.773-0.318,26.409c0,7.636-8.909,21.318-11.455,23.546c-2.545,2.227-6.475,2.969-10.962,0.693
				c-4.119-2.089-10.891-9.221-15.027-13.357c-4.136-4.137-6.599-16.43-7.235-19.294C79.699,110.252,78.877,102.437,78.877,102.437z
				"/>
			<path style="fill:none;stroke:#263238;stroke-linecap:round;stroke-linejoin:round;stroke-miterlimit:10;" d="M112.615,124.061
				c0,0,0.371,2.412-5.195,2.041"/>
			<path style="fill:none;stroke:#263238;stroke-linecap:round;stroke-linejoin:round;stroke-miterlimit:10;" d="M114.285,130.369
				c0,0-6.493,4.452-12.986,0.185"/>
			<path style="fill:#263238;" d="M114.285,113.858c0,1.332,0.623,2.412,1.391,2.412c0.768,0,1.391-1.08,1.391-2.412
				c0-1.332-0.623-2.412-1.391-2.412C114.908,111.446,114.285,112.526,114.285,113.858z"/>
			<path style="fill:#263238;" d="M99.8,115.046c0,1.332,0.623,2.412,1.391,2.412c0.768,0,1.391-1.08,1.391-2.412
				c0-1.332-0.623-2.412-1.391-2.412C100.423,112.634,99.8,113.714,99.8,115.046z"/>
			<path style="fill:none;stroke:#263238;stroke-linecap:round;stroke-linejoin:round;stroke-miterlimit:10;" d="M120.221,106.251
				c0,0-1.67-3.71-7.235-1.855"/>
			<path style="fill:none;stroke:#263238;stroke-linecap:round;stroke-linejoin:round;stroke-miterlimit:10;" d="M103.71,105.88
				c0,0-5.194-2.783-10.946,1.484"/>
		</g>
		<g>
			<path style="fill:#92E3A9;stroke:#263238;stroke-miterlimit:10;" d="M63.152,164.018c0.12-1.682-0.076-4.626,1.953-5.747
				c1.368-0.761,10.982-2.986,18.378-4.633c4.849-1.074,8.742-1.898,8.742-1.898s0.946,14.251,1.997,28.035
				C82.248,177.751,71.505,172.112,63.152,164.018z"/>
			<path style="fill:#92E3A9;stroke:#263238;stroke-miterlimit:10;" d="M129.147,175.021c-1.321-8.491-3.409-16.916-4.596-21.383
				c7.396,1.647,17.01,3.872,18.378,4.633c2.09,1.154,1.819,4.243,1.965,5.895C140.296,168.587,134.985,172.27,129.147,175.021z"/>
		</g>
		<path style="fill:#92E3A9;stroke:#263238;stroke-miterlimit:10;" d="M83.919,177.047c-0.685-12.491-0.436-23.41-0.436-23.41
			c4.849-1.074,8.742-1.898,8.742-1.898s0.946,14.251,1.997,28.035C90.669,179.174,87.225,178.255,83.919,177.047z"/>
		<path style="fill:#263238;stroke:#263238;stroke-linecap:round;stroke-linejoin:round;stroke-miterlimit:10;" d="M105.922,76.345
			c12.073,2.078,17.5,11.136,19.409,18.773c0.338,1.354,0.542,2.821,0.656,4.355c-0.466-0.741-1.046-1.525-1.768-2.35
			c-5.599-6.399-9.998-9.198-9.998-9.198s-1.6,3.999-10.798,8.798c-9.198,4.799-21.596,4.399-21.596,4.399s2.399,0.8,0.4,5.199
			c-0.864,1.9-1.652,3.5-2.27,4.707c-0.543-3.47-1.082-8.593-1.082-8.593s0.318-11.137,4.455-17.5
			C87.467,78.573,96.186,74.669,105.922,76.345z"/>
		<path style="fill:#B5B5B5;stroke:#263238;stroke-linecap:round;stroke-linejoin:round;stroke-miterlimit:10;" d="M83.028,117.52
			c0,0-2.399-9.198-6.399-4.799c-3.999,4.399,0.8,10.798,3.199,13.997c2.4,3.199,6.399,0.8,6.399,0.8"/>
		<path style="fill:#92E3A9;stroke:#263238;stroke-miterlimit:10;" d="M115.799,151.6l3.978,26.815c0,0,8.398-2.357,11.198-4.42
			l-5.304-20.627C125.671,153.368,122.135,151.748,115.799,151.6z"/>
	</g>
</g>
<g id="Character_2">
	<g>
		
			<ellipse transform="matrix(0.9753 -0.2209 0.2209 0.9753 -56.1776 29.5725)" style="fill:#92E3A9;" cx="104.1" cy="265.901" rx="58.867" ry="58.867"/>
		<g>
			<path style="fill:#FFFFFF;stroke:#263238;stroke-miterlimit:10;" d="M104.1,324.768c17.257,0,32.766-7.436,43.531-19.268
				l-28.558-15.472l-2.836-14.182l-20.209-4.964l-0.709,19.146l-33.644,16.655C72.382,317.826,87.426,324.768,104.1,324.768z"/>
			<polygon style="fill:#263238;stroke:#263238;stroke-miterlimit:10;" points="95.485,285.526 113.755,282.228 108.895,274.043 
				96.027,270.882 			"/>
			<path style="fill:#263238;stroke:#263238;stroke-linecap:round;stroke-linejoin:round;stroke-miterlimit:10;" d="
				M124.446,231.331c0,0-20.526-11.316-30.263-10.527c-9.737,0.79-24.474,21.053-26.316,30.79c-1.842,9.737,7.632,15,8.158,15.79
				c0.526,0.79-7.895,0.263-7.105,6.579c0.789,6.316,10.79,7.368,16.579,6.316c5.79-1.053,9.737-8.421,9.737-9.474
				c0-1.053-2.632-8.158-2.632-8.158s5.526,0.526,6.316-4.21c0.79-4.737,5.263-15.264,11.316-15.527
				c6.053-0.263,10.79,0.526,11.316,1.842c0.526,1.316,1.053,6.316,1.053,6.316s6.842,1.579,12.369-3.158
				c5.526-4.737,7.632-17.632,0.263-20.263C127.867,225.015,124.446,231.331,124.446,231.331z"/>
			<g>
				<g>
					<path style="fill:#FFFFFF;stroke:#263238;stroke-linecap:round;stroke-linejoin:round;stroke-miterlimit:10;" d="
						M90.119,258.28l-10.581,6.005c0,0,4.003,4.861,5.719,5.433c1.716,0.572,4.575-0.286,4.575-0.286s4.861,5.719,8.579,8.293
						c3.717,2.574,12.582,7.435,17.444,5.719c4.861-1.716,12.01-14.584,11.438-18.873c-0.572-4.289-3.146-11.153-2.86-14.584
						c0.286-3.432,0.858-8.865,0.858-8.865s-11.724-5.719-21.161-0.286C94.694,246.27,95.266,256.278,90.119,258.28z"/>
					<path style="fill:none;stroke:#263238;stroke-linecap:round;stroke-linejoin:round;stroke-miterlimit:10;" d="M115.855,253.133
						l0.286,3.432c0,0,7.435,0.858,4.575,3.431c-2.86,2.574-6.863,3.146-6.863,3.146"/>
					<path style="fill:none;stroke:#263238;stroke-linecap:round;stroke-linejoin:round;stroke-miterlimit:10;" d="M102.129,250.845
						c0,0,2.86-2.86,6.291-2.574"/>
					<path style="fill:none;stroke:#263238;stroke-linecap:round;stroke-linejoin:round;stroke-miterlimit:10;" d="M116.999,247.413
						c0,0,2.86-1.144,5.719,1.144"/>
					<ellipse style="fill:#263238;" cx="107.372" cy="255.591" rx="1.239" ry="2.173"/>
					<path style="fill:#263238;" d="M121.423,254.274c0,1.2-0.555,2.173-1.24,2.173c-0.685,0-1.24-0.973-1.24-2.173
						c0-1.2,0.555-2.173,1.24-2.173C120.868,252.102,121.423,253.074,121.423,254.274z"/>
				</g>
				<path style="fill:none;stroke:#263238;stroke-linecap:round;stroke-linejoin:round;stroke-miterlimit:10;" d="M120.491,266.628
					c0,0-6.736,3.9-12.764-0.354"/>
			</g>
			<path style="fill:#263238;stroke:#263238;stroke-miterlimit:10;" d="M104.1,324.768c17.261,0,32.774-7.439,43.539-19.277
				l-19.321-11.176l-6.763,19.113l-23.4,0.355L82.909,296.41l-0.385-0.048l-20.849,10.322
				C72.382,317.826,87.426,324.768,104.1,324.768z"/>
		</g>
		
			<ellipse transform="matrix(0.9753 -0.2209 0.2209 0.9753 -56.1776 29.5725)" style="fill:none;stroke:#263238;stroke-miterlimit:10;" cx="104.1" cy="265.901" rx="58.867" ry="58.867"/>
	</g>
</g>
<g id="Character_1">
	<g>
		<g>
			<path style="fill:#FFFFFF;stroke:#263238;stroke-miterlimit:10;" d="M250.529,146.642c0,0,1.764,3.528,2.772,7.308
				c1.008,3.78,0.756,6.552,3.024,8.316c2.268,1.764,4.788,2.268,4.284,4.536s-2.52,2.772-2.52,2.772s-1.26,11.34-1.764,15.372
				c-0.504,4.032-13.86,0-13.86,0l-2.52,12.851l-16.379,1.008l-1.764-13.859c0,0-6.552-7.812-8.316-19.403
				c-1.764-11.592,4.788-25.199,18.647-25.199C245.993,140.343,250.529,146.642,250.529,146.642z"/>
			<path style="fill:none;stroke:#263238;stroke-miterlimit:10;" d="M257.081,175.873c0,0-3.024,1.008-4.788-1.008"/>
			<line style="fill:none;stroke:#263238;stroke-miterlimit:10;" x1="252.797" y1="158.99" x2="253.805" y2="162.266"/>
			<path style="fill:none;stroke:#263238;stroke-miterlimit:10;" d="M252.797,156.974c0,0-2.016,0-2.016,2.016"/>
		</g>
		<path style="fill:#FFFFFF;stroke:#263238;stroke-miterlimit:10;" d="M216.007,205.104c0,0,6.048-8.064,7.056-8.316
			c1.008-0.252,12.096-2.772,17.387-1.512c5.292,1.26,6.552,3.78,10.584,4.788c4.032,1.008,8.568-0.504,8.568-0.504
			s-1.764,2.772-4.032,3.78c-2.268,1.008-4.536,1.764-5.796,1.764c-1.26,0-3.024,1.008-9.324-0.252
			c-6.3-1.26-17.135-1.512-17.135-1.512L216.007,205.104z"/>
		<path style="fill:#FFFFFF;stroke:#263238;stroke-miterlimit:10;" d="M325.37,200.316c0,0,2.772-9.576,4.032-11.592
			c1.26-2.016,4.284-4.788,6.048-5.796c1.764-1.008,8.568-5.04,10.332-5.04c1.764,0,2.713,1.977,1.26,2.772
			c-0.911,0.499-5.292,2.268-5.796,3.024c-0.504,0.756-2.016,2.016-2.016,2.016l4.032,1.008c0,0,1.512,2.772,2.268,4.032
			c0.756,1.26,1.512,2.52,0.504,4.284c-1.008,1.764-2.268,4.536-3.78,5.292c-1.512,0.756-0.756-2.772-0.756-2.772
			s-3.024,3.024-4.536,4.284c-1.512,1.26-3.528,2.268-3.528,2.268l-0.756,2.016L325.37,200.316z"/>
		<path style="fill:#FFFFFF;stroke:#263238;stroke-miterlimit:10;" d="M204.629,278.109c0,0,4.977-0.036,6.109-0.109
			c1.132-0.072,3.304-0.978,4.028-0.978c0.724,0,1.086,5.069-0.724,9.413c-1.81,4.345-6.517,6.698-6.517,6.698l-5.793-6.155
			C201.733,286.979,204.267,281.005,204.629,278.109z"/>
		<g>
			<path style="fill:#FFFFFF;stroke:#263238;stroke-miterlimit:10;" d="M209.071,368.667c0,0-2.333,13.333-0.667,25.667
				c1.667,12.333,11,60.333,11,60.333l-3.667,14c0,0-4,2.333-2,3.333s11.667,0,11.667,0s1.333-6,2.333-9s4-5,2.667-8.667
				c-1.333-3.667-2.333-7.333-2.333-7.333l4.667-71.333L209.071,368.667z"/>
			<path style="fill:#263238;stroke:#263238;stroke-miterlimit:10;" d="M229.564,451.903c-1.57-0.112-4.904,0.002-6.16,2.764
				c-1.667,3.667-5.333,12.667-5.333,12.667l-3.667,2.333l-0.355,0.237c-0.783,0.72-1.339,1.584-0.312,2.097c2,1,11.667,0,11.667,0
				s1.333-6,2.333-9s4-5,2.667-8.667C230.105,453.508,229.823,452.686,229.564,451.903z"/>
			<path style="fill:#263238;stroke:#263238;stroke-miterlimit:10;" d="M225.071,458l1.5,14h2.333l1.167-15.167
				C230.071,456.833,226.071,454,225.071,458z"/>
		</g>
		<g>
			<path style="fill:#FFFFFF;stroke:#263238;stroke-miterlimit:10;" d="M252.071,373.333l6,12.667c0,0,0.998,18.202,5.665,29.202
				s14,28.667,14,28.667l3,5.333c0,0-4.333,5-3,8s7,4.667,9.333,6.667c2.333,2,2.835,8.131,5.502,8.131c2.667,0,10,0.667,10.667-1
				c0.667-1.667-3.667-3.667-3.667-3.667s-6.417-12.167-7.083-13.833c-0.667-1.667-10.75-58.167-11.417-64.833
				c-0.667-6.667-2.667-18.333-2.667-18.333L252.071,373.333z"/>
			<path style="fill:#263238;stroke:#263238;stroke-miterlimit:10;" d="M293.571,467.667c0,0-5.168-8.131-7.835-11.798
				c-2.344-3.224-5.717-4.385-6.498-4.619c-1.104,1.725-2.288,4.183-1.502,5.952c1.333,3,6.673,4.657,8.294,7.268
				c2.256,3.635,3.875,7.53,6.541,7.53c2.667,0,10,0.667,10.667-1c0.667-1.667-3.667-3.667-3.667-3.667
				C298.571,467,293.571,467.667,293.571,467.667z"/>
			<path style="fill:#263238;stroke:#263238;stroke-miterlimit:10;" d="M277.736,458.452l1.149,14.048h2.131l1.222-10.5
				C282.238,462,282.485,457.405,277.736,458.452z"/>
		</g>
		<g>
			<path style="fill:#263238;stroke:#263238;stroke-miterlimit:10;" d="M210.738,278c0,0-8,17-10,29s1.5,34,1.5,34l-1.5,30
				c0,0,29,7.5,49,7.5s36.5-5,36.5-5s0.5-32.5-3.5-48s-13-41.5-13.5-43s-4-6-4-6S233.238,283,210.738,278z"/>
			<line style="fill:none;stroke:#707070;stroke-miterlimit:10;" x1="218.603" y1="326.113" x2="250.06" y2="354.835"/>
			<line style="fill:none;stroke:#707070;stroke-miterlimit:10;" x1="228.861" y1="344.578" x2="243.222" y2="356.203"/>
		</g>
		<g>
			<path style="fill:#FFFFFF;stroke:#263238;stroke-miterlimit:10;" d="M218.778,204.6c0,0-19.655,8.064-20.411,10.332
				c-0.756,2.268-6.552,14.615-6.552,14.615s-23.687,36.287-23.183,38.051c0.504,1.764,27.719,18.395,27.719,18.395
				s-0.756,0.756,0,1.26c0.756,0.504,6.552,2.016,6.552,2.016s4.032-3.78,4.032-7.308s-1.008-5.04-1.764-5.292
				c-0.756-0.252-4.284-2.268-4.284-2.268l-1.008-0.252l-10.836-11.592l13.607-18.899c0,0,12.096,21.671,12.096,24.443
				s-6.048,9.324-4.788,12.348c1.26,3.024,5.796,3.78,23.435,5.544c17.639,1.764,32.507-4.032,34.019-5.292
				c1.512-1.26-2.52-9.072-2.52-14.867c0-5.796,0.252-26.963,0.252-26.963s25.451,10.584,30.491,7.812
				c5.04-2.772,35.531-35.783,35.531-35.783l4.536-4.284l-10.08-9.324l-6.804,6.048l-29.231,23.183c0,0-1.512-1.512-2.268-1.512
				c-0.756,0-2.268,0.252-2.268,0.252s-19.151-13.104-21.419-15.12c-2.268-2.016-8.568-2.268-8.568-2.268l-12.348-2.268
				C242.718,205.608,229.11,200.064,218.778,204.6z"/>
			<g>
				<line style="fill:none;stroke:#263238;stroke-miterlimit:10;" x1="265.145" y1="238.871" x2="249.773" y2="236.099"/>
				<line style="fill:none;stroke:#263238;stroke-miterlimit:10;" x1="261.113" y1="238.367" x2="247.001" y2="242.651"/>
				<path style="fill:none;stroke:#263238;stroke-miterlimit:10;" d="M249.549,272.386c0.786-0.874,1.537-1.797,2.24-2.772"/>
				<path style="fill:none;stroke:#263238;stroke-miterlimit:10;" d="M230.118,284.985c0,0,9.377-3.069,17.053-10.188"/>
				<path style="fill:none;stroke:#263238;stroke-miterlimit:10;" d="M252.041,264.07c0,0-5.796,3.276-11.844,6.804"/>
				<path style="fill:none;stroke:#263238;stroke-miterlimit:10;" d="M198.222,232.321l4.429,11.338c0,0-8.568-6.804-9.576-9.828"/>
				<line style="fill:none;stroke:#263238;stroke-miterlimit:10;" x1="196.351" y1="227.531" x2="197.22" y2="229.755"/>
				<path style="fill:none;stroke:#263238;stroke-miterlimit:10;" d="M187.784,241.643c0,0,4.536,2.268,11.592,0.504"/>
				<path style="fill:none;stroke:#263238;stroke-miterlimit:10;" d="M187.784,261.802c0,0-5.292,1.008-10.08-0.504"/>
				<path style="fill:none;stroke:#263238;stroke-miterlimit:10;" d="M180.98,258.022c0,0,3.78,1.764,6.552,1.764"/>
				<path style="fill:#FFFFFF;stroke:#263238;stroke-miterlimit:10;" d="M199.879,274.15c0,0,2.52,9.576-3.528,11.844"/>
				<line style="fill:none;stroke:#263238;stroke-miterlimit:10;" x1="320.583" y1="201.828" x2="331.166" y2="210.9"/>
				<path style="fill:none;stroke:#263238;stroke-miterlimit:10;" d="M284.32,233.353c-0.584,0.591-1.186,1.179-1.787,1.738"/>
				<path style="fill:none;stroke:#263238;stroke-miterlimit:10;" d="M289.588,227.531c0,0-1.401,1.701-3.319,3.778"/>
				<path style="fill:none;stroke:#263238;stroke-miterlimit:10;" d="M286.312,226.523c0,0-4.032,4.032-7.812,6.048"/>
			</g>
		</g>
		<path style="fill:#263238;stroke:#263238;stroke-miterlimit:10;" d="M251.256,141.652c0,0,1.786,4.643-1.786,16.43
			c-3.572,11.787-6.786,19.645-5.001,27.146c1.786,7.501,6.072,8.93,6.786,7.858s2.5-2.5,2.5-2.5s0.714,2.857-2.5,5.358
			c-3.215,2.5-15.716,5.001-23.574,3.929c-7.858-1.071-12.859,2.143-15.716-4.643c-2.857-6.786-1.429-17.502-2.143-21.788
			c-0.714-4.286-7.858-10.001-2.857-22.86c5.001-12.859,25.003-14.287,31.789-14.287
			C245.541,136.294,250.185,134.151,251.256,141.652z"/>
	</g>
</g>
<g id="Check_mark_2">
	<g>
		<circle style="fill:#FFFFFF;stroke:#263238;stroke-miterlimit:10;" cx="335.233" cy="121.201" r="17.1"/>
		
			<polyline style="fill:none;stroke:#263238;stroke-width:3;stroke-linecap:round;stroke-linejoin:round;stroke-miterlimit:10;" points="
			328.333,117 335.667,125 350.333,103.667 		"/>
	</g>
</g>
<g id="Check_mark_1">
	<g>
		
			<ellipse transform="matrix(0.7071 -0.7071 0.7071 0.7071 -173.4732 113.0002)" style="fill:#FFFFFF;stroke:#263238;stroke-miterlimit:10;" cx="49.667" cy="265.901" rx="17.1" ry="17.1"/>
		
			<polyline style="fill:none;stroke:#263238;stroke-width:3;stroke-linecap:round;stroke-linejoin:round;stroke-miterlimit:10;" points="
			42.767,261.7 50.1,269.7 64.767,248.367 		"/>
	</g>
</g>
<g id="Floor">
	<g>
		<path style="fill:none;stroke:#263238;stroke-miterlimit:10;" d="M116.634,239.789"/>
		<path style="fill:none;stroke:#263238;stroke-miterlimit:10;" d="M110.608,232.851"/>
	</g>
	<g>
		<line style="fill:none;stroke:#263238;stroke-miterlimit:10;" x1="94" y1="472.444" x2="458" y2="472.444"/>
		<line style="fill:none;stroke:#263238;stroke-miterlimit:10;" x1="54" y1="472.444" x2="83" y2="472.444"/>
	</g>
</g>
</svg>
