<?xml version="1.0" encoding="UTF-8"?> <svg xmlns="http://www.w3.org/2000/svg" width="62" height="62" viewBox="0 0 62 62" fill="none"><path d="M49 1H13C6.37258 1 1 6.37258 1 13V49C1 55.6274 6.37258 61 13 61H49C55.6274 61 61 55.6274 61 49V13C61 6.37258 55.6274 1 49 1Z" stroke="#BDBDBD" stroke-miterlimit="10"></path><path d="M33.7334 23.0001C35.0357 23.2542 36.2326 23.8911 37.1708 24.8293C38.1091 25.7676 38.746 26.9644 39.0001 28.2667M33.7334 17.6667C36.4391 17.9673 38.9622 19.179 40.8884 21.1028C42.8146 23.0265 44.0294 25.5481 44.3334 28.2534M39.6667 43.0001C28.2528 43.0001 19 33.7473 19 22.3334C19 21.8185 19.0188 21.3079 19.0559 20.8024C19.0983 20.2222 19.1196 19.9322 19.2716 19.6681C19.3975 19.4494 19.6207 19.242 19.848 19.1324C20.1224 19.0001 20.4425 19.0001 21.0827 19.0001H24.8391C25.3774 19.0001 25.6466 19.0001 25.8774 19.0887C26.0812 19.1669 26.2627 19.2941 26.4059 19.4589C26.568 19.6455 26.66 19.8984 26.844 20.4044L28.3988 24.6801C28.6129 25.2688 28.7199 25.5631 28.7017 25.8423C28.6857 26.0886 28.6017 26.3255 28.459 26.5268C28.2971 26.7551 28.0286 26.9163 27.4915 27.2385L25.6667 28.3334C27.2692 31.8652 30.1335 34.7333 33.6667 36.3334L34.7616 34.5086C35.0838 33.9715 35.245 33.7029 35.4733 33.5411C35.6746 33.3984 35.9115 33.3144 36.1577 33.2984C36.437 33.2802 36.7313 33.3872 37.3199 33.6013L41.5957 35.1561C42.1017 35.3401 42.3546 35.4321 42.5412 35.5942C42.706 35.7374 42.8331 35.9189 42.9114 36.1227C43 36.3535 43 36.6226 43 37.161V40.9174C43 41.5576 43 41.8777 42.8677 42.1521C42.7581 42.3794 42.5506 42.6026 42.332 42.7285C42.0679 42.8805 41.7778 42.9017 41.1977 42.9442C40.6922 42.9812 40.1816 43.0001 39.6667 43.0001Z" stroke="#4F4F4F" stroke-width="1.5" stroke-linecap="round" stroke-linejoin="round"></path></svg> 