<?xml version="1.0" encoding="utf-8"?>
<!-- Generator: Adobe Illustrator 27.0.0, SVG Export Plug-In . SVG Version: 6.00 Build 0)  -->
<svg version="1.1" id="Layer_1" xmlns="http://www.w3.org/2000/svg" xmlns:xlink="http://www.w3.org/1999/xlink" x="0px" y="0px"
	 viewBox="0 0 316 169.1" style="enable-background:new 0 0 316 169.1;" xml:space="preserve">
<style type="text/css">
	.st0{fill:#008D39;}
</style>
<g>
	<g>
		<path class="st0" d="M158,120.3v39.9c-41.7,0-75.7-33.9-75.7-75.7c0-2.1,0.1-4.2,0.3-6.2C102.4,60,128.9,48.8,158,48.8
			c-19.7,0-35.7,16-35.7,35.7C122.3,104.2,138.3,120.3,158,120.3z"/>
	</g>
	<path class="st0" d="M233.7,84.5c0,41.7-33.9,75.7-75.7,75.7v-39.9c19.7,0,35.7-16,35.7-35.7c0-19.7-16-35.7-35.7-35.7
		c-29.1,0-55.6,11.2-75.4,29.5c-22,20.3-35.9,49.4-35.9,81.7H6.8C6.8,77.4,73.6,9.9,156,8.9c0.7,0,1.3,0,2,0c0.7,0,1.3,0,2,0
		c38.8,1,70.4,31.2,73.5,69.4C233.6,80.4,233.7,82.5,233.7,84.5z"/>
	<path class="st0" d="M309.2,160.1h-39.9c0-32.3-13.8-61.4-35.8-81.7c-3.1-38.2-34.7-68.4-73.5-69.4
		C242.4,9.9,309.2,77.4,309.2,160.1z"/>
</g>
</svg>
