<?xml version="1.0" encoding="utf-8"?>
<!-- Generator: Adobe Illustrator 28.0.0, SVG Export Plug-In . SVG Version: 6.00 Build 0)  -->
<svg version="1.1" id="Layer_1" xmlns="http://www.w3.org/2000/svg" xmlns:xlink="http://www.w3.org/1999/xlink" x="0px" y="0px"
	 viewBox="0 0 1080 448.41" style="enable-background:new 0 0 1080 448.41;" xml:space="preserve">
<style type="text/css">
	.st0{fill:#008D39;}
</style>
<g>
	<g>
		<g>
			<path class="st0" d="M773.42,245.86v24.53c-25.63,0-46.48-20.85-46.48-46.48c0-1.29,0.05-2.55,0.16-3.81
				c12.18-11.25,28.45-18.14,46.32-18.14c-12.1,0-21.95,9.84-21.95,21.95C751.47,236.01,761.32,245.86,773.42,245.86z"/>
		</g>
		<path class="st0" d="M819.9,223.91c0,25.63-20.85,46.48-46.49,46.48v-24.53c12.11,0,21.96-9.85,21.96-21.95
			c0-12.11-9.85-21.95-21.96-21.95c-17.87,0-34.14,6.89-46.32,18.14c-13.54,12.49-22.03,30.38-22.03,50.2h-24.53
			c0-50.81,41.02-92.23,91.68-92.85c0.4-0.02,0.8-0.02,1.2-0.02c0.4,0,0.8,0,1.2,0.02c23.81,0.6,43.23,19.19,45.13,42.65
			C819.86,221.36,819.9,222.62,819.9,223.91z"/>
		<path class="st0" d="M866.3,270.31h-24.53c0-19.83-8.49-37.71-22.03-50.2c-1.9-23.46-21.32-42.05-45.13-42.65
			C825.28,178.08,866.3,219.5,866.3,270.31z"/>
	</g>
	<path d="M214.59,227.62c0-25.37,19.76-44.16,46.72-44.16c26.84,0,46.72,18.66,46.72,44.16c0,25.49-19.88,44.16-46.72,44.16
		C234.35,271.77,214.59,252.99,214.59,227.62z M288.02,227.62c0-16.22-11.47-27.32-26.71-27.32c-15.25,0-26.71,11.1-26.71,27.32
		c0,16.22,11.47,27.32,26.71,27.32C276.55,254.94,288.02,243.84,288.02,227.62z"/>
	<path d="M387.54,215.91c0,19.03-14.27,30.86-37.08,30.86h-15.95c-0.69,0-1.25,0.56-1.25,1.25v21.04c0,0.69-0.56,1.25-1.25,1.25
		h-17.26c-0.69,0-1.25-0.56-1.25-1.25v-82.88c0-0.69,0.56-1.25,1.25-1.25h35.71C373.27,184.92,387.54,196.76,387.54,215.91z
		 M367.54,215.91c0-9.39-6.1-14.88-18.17-14.88h-14.85c-0.69,0-1.25,0.56-1.25,1.25v27.14c0,0.69,0.56,1.25,1.25,1.25h14.85
		C361.44,230.66,367.54,225.18,367.54,215.91z"/>
	<path d="M448.54,270.31c-0.41,0-0.8-0.2-1.03-0.54l-16.09-23.25h-0.98H414.5c-0.69,0-1.25,0.56-1.25,1.25v21.28
		c0,0.69-0.56,1.25-1.25,1.25h-17.26c-0.69,0-1.25-0.56-1.25-1.25v-82.88c0-0.69,0.56-1.25,1.25-1.25h35.71
		c22.81,0,37.08,11.83,37.08,30.98c0,12.27-5.94,21.41-16.2,26.34c-0.7,0.34-0.95,1.21-0.51,1.85l16.92,24.25
		c0.58,0.83-0.01,1.97-1.03,1.97H448.54z M429.35,201.02H414.5c-0.69,0-1.25,0.56-1.25,1.25v27.26c0,0.69,0.56,1.25,1.25,1.25h14.85
		c12.08,0,18.17-5.61,18.17-14.88C447.52,206.51,441.42,201.02,429.35,201.02z"/>
	<path d="M639.85,218.59v-32.41c0-0.69,0.56-1.25,1.25-1.25h17.26c0.69,0,1.25,0.56,1.25,1.25v82.88c0,0.69-0.56,1.25-1.25,1.25
		H641.1c-0.69,0-1.25-0.56-1.25-1.25V235.3V218.59z M601.06,235.3v33.76c0,0.69-0.56,1.25-1.25,1.25h-17.26
		c-0.69,0-1.25-0.56-1.25-1.25v-82.88c0-0.69,0.56-1.25,1.25-1.25h17.26c0.69,0,1.25,0.56,1.25,1.25v32.41V235.3z"/>
	<path d="M608.28,237.5h-25.73c-0.69,0-1.25-0.56-1.25-1.25v-17.26c0-0.69,0.56-1.25,1.25-1.25h65.92c0.69,0,1.25,0.56,1.25,1.25
		v17.26c0,0.69-0.56,1.25-1.25,1.25h-26.8H608.28z"/>
	<g>
		<path d="M491.98,270.31H474.9c-0.88,0-1.48-0.88-1.17-1.7l31.85-82.88c0.19-0.48,0.65-0.8,1.17-0.8h18.9l-32.5,84.58
			C492.96,269.99,492.5,270.31,491.98,270.31z"/>
		<path d="M558.18,270.31h17.08c0.88,0,1.48-0.88,1.17-1.7l-31.85-82.88c-0.19-0.48-0.65-0.8-1.17-0.8h-18.9l32.5,84.58
			C557.19,269.99,557.66,270.31,558.18,270.31z"/>
	</g>
</g>
</svg>
