<?xml version="1.0" encoding="utf-8"?>
<!-- Generator: Adobe Illustrator 27.0.0, SVG Export Plug-In . SVG Version: 6.00 Build 0)  -->
<svg version="1.1" id="Layer_1" xmlns="http://www.w3.org/2000/svg" xmlns:xlink="http://www.w3.org/1999/xlink" x="0px" y="0px"
	 viewBox="0 0 1080 169.1" style="enable-background:new 0 0 1080 169.1;" xml:space="preserve">
<style type="text/css">
	.st0{fill:#008D39;}
</style>
<g>
	<g>
		<g>
			<path class="st0" d="M919.25,119.15v39.93c-41.72,0-75.66-33.94-75.66-75.66c0-2.09,0.08-4.15,0.26-6.2
				c19.82-18.32,46.32-29.53,75.4-29.53c-19.69,0-35.73,16.02-35.73,35.73C883.52,103.11,899.55,119.15,919.25,119.15z"/>
		</g>
		<path class="st0" d="M994.92,83.42c0,41.72-33.94,75.66-75.67,75.66v-39.93c19.71,0,35.74-16.04,35.74-35.73
			c0-19.71-16.03-35.73-35.74-35.73c-29.08,0-55.58,11.21-75.4,29.53c-22.04,20.33-35.86,49.45-35.86,81.73l-39.93,0
			c0-82.72,66.78-150.13,149.24-151.15c0.66-0.03,1.29-0.03,1.95-0.03c0.66,0,1.31,0,1.95,0.03c38.76,0.97,70.37,31.24,73.47,69.43
			C994.84,79.27,994.92,81.33,994.92,83.42z"/>
		<path class="st0" d="M1070.45,158.95h-39.93c0-32.28-13.82-61.39-35.85-81.73c-3.1-38.19-34.71-68.45-73.47-69.43
			C1003.67,8.82,1070.45,76.24,1070.45,158.95z"/>
	</g>
	<path d="M9.55,89.45c0-41.3,32.17-71.88,76.05-71.88c43.68,0,76.05,30.38,76.05,71.88c0,41.5-32.37,71.88-76.05,71.88
		C41.72,161.33,9.55,130.76,9.55,89.45z M129.09,89.45c0-26.41-18.66-44.48-43.49-44.48S42.12,63.05,42.12,89.45
		c0,26.41,18.66,44.48,43.49,44.48S129.09,115.86,129.09,89.45z"/>
	<path d="M291.1,70.39c0,30.98-23.23,50.24-60.36,50.24h-25.96c-1.13,0-2.04,0.91-2.04,2.04v34.25c0,1.13-0.91,2.04-2.04,2.04
		h-28.09c-1.13,0-2.04-0.91-2.04-2.04V22c0-1.13,0.91-2.04,2.04-2.04h58.13C267.87,19.96,291.1,39.22,291.1,70.39z M258.53,70.39
		c0-15.29-9.93-24.23-29.59-24.23h-24.17c-1.13,0-2.04,0.91-2.04,2.04v44.17c0,1.13,0.91,2.04,2.04,2.04h24.17
		C248.61,94.42,258.53,85.48,258.53,70.39z"/>
	<path d="M390.4,158.95c-0.67,0-1.3-0.33-1.68-0.88l-26.2-37.84h-1.59h-25.96c-1.13,0-2.04,0.91-2.04,2.04v34.64
		c0,1.13-0.91,2.04-2.04,2.04h-28.09c-1.13,0-2.04-0.91-2.04-2.04V22c0-1.13,0.91-2.04,2.04-2.04h58.13
		c37.13,0,60.36,19.26,60.36,50.43c0,19.98-9.67,34.85-26.37,42.87c-1.14,0.55-1.55,1.97-0.82,3.01l27.54,39.47
		c0.94,1.35-0.02,3.21-1.67,3.21H390.4z M359.15,46.17h-24.17c-1.13,0-2.04,0.91-2.04,2.04v44.37c0,1.13,0.91,2.04,2.04,2.04h24.17
		c19.66,0,29.59-9.13,29.59-24.22C388.74,55.1,378.81,46.17,359.15,46.17z"/>
	<path d="M701.81,74.76V22c0-1.13,0.91-2.04,2.04-2.04h28.09c1.13,0,2.04,0.91,2.04,2.04v134.92c0,1.13-0.91,2.04-2.04,2.04h-28.09
		c-1.13,0-2.04-0.91-2.04-2.04v-54.95V74.76z M638.67,101.96v54.95c0,1.13-0.91,2.04-2.04,2.04h-28.09c-1.13,0-2.04-0.91-2.04-2.04
		V22c0-1.13,0.91-2.04,2.04-2.04h28.09c1.13,0,2.04,0.91,2.04,2.04v52.76V101.96z"/>
	<path d="M650.42,105.54h-41.88c-1.13,0-2.04-0.91-2.04-2.04V75.41c0-1.13,0.91-2.04,2.04-2.04h107.32c1.13,0,2.04,0.91,2.04,2.04
		v28.09c0,1.13-0.91,2.04-2.04,2.04h-43.63H650.42z"/>
	<g>
		<path d="M461.11,158.95h-27.8c-1.43,0-2.42-1.43-1.9-2.77l51.84-134.92c0.3-0.79,1.06-1.31,1.9-1.31h30.77l-52.9,137.69
			C462.71,158.43,461.95,158.95,461.11,158.95z"/>
		<path d="M568.87,158.95h27.8c1.43,0,2.42-1.43,1.9-2.77L546.73,21.27c-0.3-0.79-1.06-1.31-1.9-1.31h-30.77l52.9,137.69
			C567.27,158.43,568.02,158.95,568.87,158.95z"/>
	</g>
</g>
</svg>
