<svg width="303" height="152" viewBox="0 0 303 152" fill="none" xmlns="http://www.w3.org/2000/svg">
<g clip-path="url(#clip0_59_350)">
<path d="M153.14 0.03C152.5 0 151.85 0 151.19 0C150.53 0 149.9 0 149.24 0.03C66.78 1.05 0 68.46 0 151.18H39.93C39.93 118.9 53.75 89.78 75.79 69.45C75.61 71.5 75.53 73.56 75.53 75.65C75.53 117.37 109.47 151.31 151.19 151.31C192.91 151.31 226.86 117.37 226.86 75.65C226.86 73.56 226.78 71.5 226.61 69.46C223.51 31.27 191.9 1 153.14 0.03ZM151.19 111.38C131.49 111.38 115.46 95.34 115.46 75.65C115.46 55.96 131.5 39.92 151.19 39.92C170.88 39.92 186.93 55.94 186.93 75.65C186.93 95.36 170.9 111.38 151.19 111.38Z" fill="#169C4D"/>
<path d="M153.14 0.0200195C191.9 1.00002 223.51 31.26 226.61 69.45C248.64 89.79 262.46 118.9 262.46 151.18H302.39C302.39 68.47 235.61 1.05002 153.14 0.0200195Z" fill="#169C4D"/>
</g>
<defs>
<clipPath id="clip0_59_350">
<rect width="302.39" height="151.31" fill="white"/>
</clipPath>
</defs>
</svg>
