<svg xmlns="http://www.w3.org/2000/svg" width="98" height="98" viewBox="0 0 98 98" fill="none">
<path d="M92 1H6C3.23858 1 1 3.23857 1 6V92C1 94.7614 3.23857 97 6 97H92C94.7614 97 97 94.7614 97 92V6C97 3.23858 94.7614 1 92 1Z" stroke="#333333" stroke-miterlimit="10"/>
<path d="M53.8051 30.3773V26.0611C53.8051 24.6007 54.9888 23.4 56.4285 23.4H60.6837C62.1234 23.4 63.3071 24.6007 63.3071 26.0611V30.3773" stroke="#333333" stroke-miterlimit="10" stroke-linecap="round" stroke-linejoin="round"/>
<path d="M58.5718 38.4255C61.5403 38.4255 63.9467 35.9846 63.9467 32.9735C63.9467 29.9625 61.5403 27.5215 58.5718 27.5215C55.6034 27.5215 53.197 29.9625 53.197 32.9735C53.197 35.9846 55.6034 38.4255 58.5718 38.4255Z" stroke="#333333" stroke-miterlimit="10" stroke-linecap="round" stroke-linejoin="round"/>
<path d="M27.5705 50.4329C30.5389 50.4329 32.9454 47.992 32.9454 44.9809C32.9454 41.9698 30.5389 39.5289 27.5705 39.5289C24.602 39.5289 22.1956 41.9698 22.1956 44.9809C22.1956 47.992 24.602 50.4329 27.5705 50.4329Z" stroke="#333333" stroke-miterlimit="10" stroke-linecap="round" stroke-linejoin="round"/>
<path d="M53.9009 34.2067H63.179C63.4669 34.2067 63.6269 34.4988 63.4989 34.7584L62.4431 36.738L60.3636 38.101H56.7483L54.4128 36.4459L53.581 34.7584C53.453 34.4988 53.6449 34.2067 53.9009 34.2067Z" fill="#333333"/>
<path d="M45.9666 68.5088C45.2307 68.5088 44.4949 68.2492 43.919 67.7948L26.1947 53.9377C24.691 52.7369 22.4834 53.029 21.2997 54.5867L20.9158 55.0735C19.764 56.5988 20.0199 58.838 21.5556 60.0387L41.0076 75.2264C41.8074 75.8755 42.7992 76.2 43.823 76.2H73.9928C75.0486 76.2 75.9764 75.7781 76.6802 75.0642C77.3521 74.3827 77.8 73.4091 77.8 72.3382C77.8 70.2288 76.1043 68.4763 73.9928 68.4763H45.9666V68.5088Z" stroke="#333333" stroke-miterlimit="10" stroke-linecap="round" stroke-linejoin="round"/>
<path d="M44.3347 67.9571C44.6226 68.1842 45.0066 68.314 45.3905 68.314L54.7325 68.5088C55.2764 68.5088 55.8203 68.379 56.3002 68.1518L61.5791 65.6205C62.379 65.2311 63.3068 65.1337 64.1706 65.3933L74.5365 68.2167C75.5602 68.5088 76.648 68.0544 77.1919 67.1133C77.9277 65.8477 77.3839 64.225 76.0401 63.6734L63.4028 58.3512C62.379 57.9293 61.2592 57.9293 60.2354 58.3187L53.2289 61.0772C53.0049 61.1745 52.749 61.207 52.525 61.207H46.8942C46.2863 61.207 45.6784 61.0123 45.1985 60.6228L35.5365 53.0939C34.9606 52.6396 34.2568 52.4124 33.5529 52.4124C32.5931 52.4124 31.6333 52.8667 30.9935 53.678C29.9057 55.1059 30.1616 57.1504 31.5693 58.2538L44.3347 67.9571Z" stroke="#333333" stroke-miterlimit="10" stroke-linecap="round" stroke-linejoin="round"/>
<path d="M38.8318 55.6253L50.5094 43.6179C51.4052 42.6768 52.653 42.1576 53.9647 42.1576H63.4348C64.7145 42.1576 65.9622 42.6768 66.89 43.6179L75.0164 51.9906C75.7202 52.7046 75.8482 53.8404 75.3043 54.6842L70.9852 61.4992" stroke="#333333" stroke-miterlimit="10" stroke-linecap="round" stroke-linejoin="round"/>
<path d="M64.3626 49.9137L66.9226 52.7046C67.5946 53.4186 67.6586 54.522 67.1146 55.3333L64.7146 58.8706" stroke="#333333" stroke-miterlimit="10" stroke-linecap="round" stroke-linejoin="round"/>
<path d="M43.5348 59.2925L51.4051 50.9522C51.7571 50.5952 52.3649 50.8224 52.3649 51.3416V61.2071" stroke="#333333" stroke-miterlimit="10" stroke-linecap="round" stroke-linejoin="round"/>
</svg>