<?xml version="1.0" encoding="UTF-8"?> <svg xmlns="http://www.w3.org/2000/svg" width="62" height="62" viewBox="0 0 62 62" fill="none"><path d="M49 1H13C6.37258 1 1 6.37258 1 13V49C1 55.6274 6.37258 61 13 61H49C55.6274 61 61 55.6274 61 49V13C61 6.37258 55.6274 1 49 1Z" stroke="#BDBDBD" stroke-miterlimit="10"></path><path d="M24.2003 42.4667C26.2003 43.6667 28.6003 44.3334 31.0003 44.3334C38.3337 44.3334 44.3337 38.3334 44.3337 31.0001C44.3337 23.6667 38.3337 17.6667 31.0003 17.6667C23.667 17.6667 17.667 23.6667 17.667 31.0001C17.667 33.4001 18.3337 35.6667 19.4003 37.6667L18.1074 42.6394C17.9127 43.3883 18.6059 44.0652 19.35 43.8526L24.2003 42.4667Z" stroke="#4F4F4F" stroke-width="1.5" stroke-miterlimit="10" stroke-linecap="round" stroke-linejoin="round"></path><path d="M37 34.798C37 35.014 36.9519 35.236 36.8498 35.452C36.7476 35.668 36.6154 35.872 36.4412 36.064C36.1467 36.388 35.8222 36.622 35.4557 36.772C35.0951 36.922 34.7046 37 34.2839 37C33.671 37 33.016 36.856 32.325 36.562C31.634 36.268 30.9429 35.872 30.2579 35.374C29.5669 34.87 28.9119 34.312 28.2869 33.694C27.668 33.07 27.1092 32.416 26.6104 31.732C26.1177 31.048 25.7211 30.364 25.4326 29.686C25.1442 29.002 25 28.348 25 27.724C25 27.316 25.0721 26.926 25.2163 26.566C25.3605 26.2 25.5889 25.864 25.9074 25.564C26.2919 25.186 26.7126 25 27.1572 25C27.3255 25 27.4937 25.036 27.644 25.108C27.8002 25.18 27.9384 25.288 28.0466 25.444L29.4407 27.406C29.5488 27.556 29.6269 27.694 29.681 27.826C29.7351 27.952 29.7651 28.078 29.7651 28.192C29.7651 28.336 29.7231 28.48 29.639 28.618C29.5608 28.756 29.4467 28.9 29.3025 29.044L28.8458 29.518C28.7797 29.584 28.7496 29.662 28.7496 29.758C28.7496 29.806 28.7556 29.848 28.7677 29.896C28.7857 29.944 28.8037 29.98 28.8157 30.016C28.9239 30.214 29.1102 30.472 29.3746 30.784C29.645 31.096 29.9334 31.414 30.2459 31.732C30.5704 32.05 30.8828 32.344 31.2013 32.614C31.5138 32.878 31.7722 33.058 31.9765 33.166C32.0065 33.178 32.0426 33.196 32.0846 33.214C32.1327 33.232 32.1808 33.238 32.2349 33.238C32.337 33.238 32.4151 33.202 32.4812 33.136L32.9379 32.686C33.0881 32.536 33.2323 32.422 33.3706 32.35C33.5088 32.266 33.647 32.224 33.7972 32.224C33.9114 32.224 34.0315 32.248 34.1637 32.302C34.2959 32.356 34.4342 32.434 34.5844 32.536L36.5734 33.946C36.7296 34.054 36.8378 34.18 36.9039 34.33C36.9639 34.48 37 34.63 37 34.798Z" stroke="#4F4F4F" stroke-width="1.5" stroke-miterlimit="10"></path></svg> 